<svg xmlns="http://www.w3.org/2000/svg" width="1400" height="1024" viewBox="0 0 1400 1024">
  <defs>
    <style>
      .cls-1 {
        fill: #2941c3;
      }

      .cls-1, .cls-2 {
        fill-rule: evenodd;
      }

      .cls-2 {
        fill: #2b28b8;
      }
    </style>
  </defs>
  <path class="cls-1" d="M0,748s48.684-4.787,120,33c74.186,39.307,209.069,156.017,304,164s103.093-85.432,259-152c103.977-44.395,197.462-13.212,330,70,84.85,53.272,187.38-53.875,274-96,48.68-23.675,113-19,113-19v276H0V748Z"/>
  <path class="cls-2" d="M0,919s97.96,96.09,282-2,333.122,34.509,334,38,125.737,119.94,343-57c67.92-55.316,284.11-126.573,441,21v105H0V919Z"/>
</svg>
