<svg width="2256" height="363" viewBox="0 0 2256 363" fill="none" xmlns="http://www.w3.org/2000/svg">
<path d="M107.352 238.241C107.155 237.561 106.721 236.989 106.14 236.645C104.885 235.932 103.329 236.448 102.665 237.796C102.356 238.425 102.284 239.159 102.466 239.844C102.891 241.287 104.305 242.107 105.662 241.698C107.018 241.245 107.775 239.697 107.352 238.241Z" fill="#FDC300"/>
<path d="M125.513 234.66C125.73 233.84 125.485 232.96 124.886 232.402C122.078 229.92 119.043 227.75 115.827 225.925C103.169 218.578 70.9096 206.483 42.0493 250.37C39.7593 248.499 37.3432 246.814 34.8204 245.327C26.3279 240.399 19.4531 240.046 14.9354 244.275C14.7931 244.409 14.6686 244.563 14.5657 244.733C13.4126 246.929 13.1314 249.532 13.7855 251.953C14.9039 256.738 18.805 261.294 25.5002 265.553C17.6659 282.779 25.1016 288.241 26.7175 289.178L27.0048 289.345C27.1778 289.427 27.3606 289.483 27.5478 289.511C38.5302 291.151 45.0432 274.752 47.1283 268.489C66.9323 276.893 84.1004 277.49 98.2459 270.079C118.814 259.172 125.264 235.661 125.513 234.66ZM107.37 246.227C103.927 247.606 100.095 245.726 98.8111 242.029C98.7074 241.73 98.6221 241.424 98.5566 241.112L98.5386 241.102C97.4993 237.33 99.4945 233.366 103.002 232.233C106.514 231.193 110.165 233.312 111.279 237.036C112.563 240.734 110.813 244.848 107.37 246.227Z" fill="#FDC300"/>
<path d="M170.759 108.318C170.562 107.638 170.128 107.067 169.548 106.722C168.292 106.01 166.736 106.525 166.073 107.874C165.763 108.503 165.692 109.236 165.873 109.921C166.298 111.364 167.712 112.185 169.069 111.776C170.425 111.322 171.182 109.774 170.759 108.318Z" fill="#FDC300"/>
<path d="M188.92 104.737C189.137 103.918 188.893 103.037 188.293 102.48C185.485 99.9972 182.45 97.827 179.235 96.0019C166.577 88.6559 134.317 76.5604 105.457 120.447C103.167 118.576 100.75 116.891 98.2276 115.405C89.7352 110.476 82.8603 110.124 78.3426 114.352C78.2003 114.486 78.0758 114.64 77.9729 114.811C76.8198 117.007 76.5387 119.609 77.1928 122.031C78.3111 126.815 82.2123 131.371 88.9074 135.63C81.0732 152.857 88.5088 158.318 90.1248 159.256L90.412 159.423C90.585 159.505 90.7678 159.56 90.955 159.588C101.937 161.229 108.45 144.83 110.535 138.566C130.34 146.97 147.508 147.567 161.653 140.157C182.221 129.249 188.671 105.738 188.92 104.737ZM170.777 116.304C167.334 117.683 163.502 115.804 162.218 112.106C162.115 111.807 162.029 111.501 161.964 111.19L161.946 111.179C160.906 107.408 162.902 103.443 166.409 102.31C169.921 101.27 173.572 103.389 174.686 107.114C175.97 110.811 174.22 114.926 170.777 116.304Z" fill="#FDC300"/>
<path d="M285.548 185.248C285.47 184.541 285.141 183.893 284.629 183.44C283.517 182.493 281.899 182.693 281.017 183.887C280.605 184.445 280.409 185.152 280.471 185.861C280.642 187.363 281.892 188.448 283.295 188.314C284.706 188.135 285.714 186.762 285.548 185.248Z" fill="#FDC300"/>
<path d="M304.012 185.307C304.366 184.544 304.276 183.631 303.781 182.964C301.446 179.971 298.833 177.239 295.984 174.811C284.797 165.095 255.152 146.847 219.281 184.3C217.35 182.01 215.263 179.877 213.037 177.919C205.531 171.4 198.833 169.698 193.67 172.965C193.507 173.068 193.358 173.195 193.228 173.342C191.719 175.274 190.998 177.777 191.227 180.286C191.509 185.21 194.565 190.457 200.418 195.963C189.773 211.353 196.149 218.187 197.577 219.428L197.831 219.648C197.987 219.763 198.157 219.854 198.336 219.918C208.852 223.695 218.057 208.858 221.177 203.112C239.209 215.277 255.983 219.247 271.155 214.751C293.238 208.082 303.596 186.242 304.012 185.307ZM284.2 193.102C280.58 193.779 277.135 191.176 276.505 187.288C276.454 186.974 276.422 186.656 276.411 186.337L276.395 186.323C276.018 182.411 278.657 178.907 282.299 178.485C285.929 178.155 289.155 180.957 289.614 184.838C290.244 188.725 287.82 192.425 284.2 193.102Z" fill="#FDC300"/>
<path d="M229.395 305.875C229.338 305.353 229.095 304.875 228.717 304.541C227.896 303.841 226.701 303.989 226.05 304.871C225.745 305.282 225.601 305.804 225.646 306.328C225.773 307.437 226.696 308.239 227.732 308.139C228.774 308.007 229.518 306.994 229.395 305.875Z" fill="#FDC300"/>
<path d="M243.03 305.919C243.291 305.356 243.224 304.681 242.859 304.189C241.135 301.979 239.205 299.962 237.102 298.169C228.841 290.994 206.951 277.52 180.463 305.176C179.037 303.484 177.496 301.909 175.852 300.463C170.31 295.65 165.364 294.393 161.551 296.805C161.431 296.882 161.321 296.975 161.225 297.084C160.111 298.511 159.578 300.359 159.748 302.212C159.955 305.847 162.212 309.722 166.534 313.788C158.674 325.152 163.382 330.198 164.437 331.114L164.624 331.277C164.739 331.362 164.865 331.429 164.997 331.476C172.762 334.266 179.559 323.31 181.863 319.067C195.178 328.049 207.564 330.981 218.767 327.661C235.074 322.737 242.723 306.61 243.03 305.919ZM228.4 311.675C225.727 312.175 223.183 310.253 222.718 307.382C222.68 307.15 222.657 306.915 222.649 306.68L222.637 306.67C222.358 303.781 224.307 301.193 226.996 300.881C229.677 300.638 232.059 302.707 232.398 305.573C232.863 308.443 231.073 311.175 228.4 311.675Z" fill="#FDC300"/>
<path d="M2042.53 154.602C2042.63 153.546 2042.35 152.488 2041.74 151.649C2040.42 149.877 2038 149.597 2036.35 151.024C2035.58 151.69 2035.08 152.649 2034.95 153.702C2034.74 155.948 2036.23 157.968 2038.31 158.268C2040.42 158.506 2042.31 156.865 2042.53 154.602Z" fill="#FDC300"/>
<path d="M2069.37 161.204C2070.12 160.22 2070.27 158.859 2069.75 157.715C2067.27 152.535 2064.31 147.639 2060.91 143.101C2047.6 125.017 2010.06 88.0065 1946.41 129.839C1944.3 125.825 1941.91 121.985 1939.27 118.351C1930.35 106.218 1921.12 101.378 1912.61 104.309C1912.34 104.402 1912.09 104.534 1911.85 104.702C1909.07 106.98 1907.25 110.367 1906.82 114.099C1905.72 121.361 1908.56 130.074 1915.39 140.151C1895.2 158.785 1902.38 170.978 1904.08 173.287L1904.38 173.697C1904.57 173.919 1904.79 174.111 1905.03 174.268C1919.18 183.474 1937.11 165.137 1943.41 157.878C1965.92 181.939 1989.11 193.635 2012.56 192.447C2046.73 190.538 2068.48 162.419 2069.37 161.204ZM2038.16 165.554C2032.69 165.261 2028.47 160.258 2028.75 154.38C2028.77 153.904 2028.82 153.431 2028.9 152.963L2028.88 152.937C2029.53 147.112 2034.44 142.945 2039.87 143.616C2045.25 144.417 2049.09 149.633 2048.57 155.441C2048.3 161.319 2043.64 165.847 2038.16 165.554Z" fill="#FDC300"/>
<path d="M2161.83 64.5018C2161.89 63.899 2161.73 63.2952 2161.38 62.8161C2160.62 61.8047 2159.24 61.6451 2158.3 62.4593C2157.86 62.8393 2157.58 63.3871 2157.51 63.9882C2157.39 65.2701 2158.23 66.4231 2159.42 66.5943C2160.62 66.7299 2161.7 65.7931 2161.83 64.5018Z" fill="#FDC300"/>
<path d="M2177.15 68.2701C2177.58 67.708 2177.66 66.9313 2177.37 66.2784C2175.95 63.3218 2174.26 60.5272 2172.32 57.9372C2164.72 47.6152 2143.29 26.4901 2106.96 50.3672C2105.76 48.0761 2104.4 45.8845 2102.89 43.81C2097.8 36.8848 2092.53 34.1226 2087.67 35.7953C2087.52 35.8482 2087.38 35.9237 2087.24 36.0197C2085.65 37.3199 2084.62 39.2531 2084.37 41.383C2083.74 45.5284 2085.36 50.5017 2089.26 56.2535C2077.73 66.8895 2081.83 73.849 2082.8 75.1667L2082.98 75.4009C2083.09 75.5276 2083.21 75.6373 2083.35 75.7268C2091.42 80.9816 2101.66 70.5148 2105.25 66.3714C2118.1 80.1054 2131.34 86.7812 2144.72 86.103C2164.23 85.0135 2176.64 68.9632 2177.15 68.2701ZM2159.34 70.7528C2156.21 70.5856 2153.81 67.7301 2153.96 64.3747C2153.97 64.1033 2154 63.8332 2154.05 63.5662L2154.04 63.5516C2154.41 60.2266 2157.21 57.8482 2160.31 58.2311C2163.38 58.6881 2165.57 61.6653 2165.28 64.9806C2165.12 68.3358 2162.46 70.9201 2159.34 70.7528Z" fill="#FDC300"/>
<path d="M2235.85 183.39C2236.04 182.707 2235.97 181.973 2235.67 181.34C2235 179.996 2233.44 179.493 2232.19 180.215C2231.6 180.552 2231.16 181.118 2230.96 181.796C2230.56 183.248 2231.31 184.776 2232.65 185.249C2234.01 185.684 2235.44 184.851 2235.85 183.39Z" fill="#FDC300"/>
<path d="M2252.78 191.288C2253.39 190.738 2253.64 189.861 2253.43 189.039C2252.39 185.297 2251 181.678 2249.28 178.238C2242.58 164.562 2222.08 135.209 2175.34 154.368C2174.41 151.443 2173.27 148.598 2171.95 145.854C2167.46 136.678 2161.93 132.27 2155.99 133.077C2155.8 133.102 2155.62 133.156 2155.44 133.235C2153.35 134.369 2151.76 136.361 2151.05 138.763C2149.49 143.404 2150.37 149.522 2153.71 157.066C2138.27 166.678 2141.61 175.663 2142.46 177.409L2142.61 177.719C2142.71 177.891 2142.84 178.047 2142.98 178.182C2151.24 186.118 2165.16 176.402 2170.15 172.451C2182.23 191.283 2196.17 202.056 2211.76 204.371C2234.5 207.628 2252.06 191.971 2252.78 191.288ZM2231.72 190.031C2228.14 189.114 2225.94 185.26 2226.79 181.422C2226.86 181.111 2226.95 180.806 2227.05 180.509L2227.04 180.489C2228.14 176.736 2231.85 174.639 2235.35 175.798C2238.81 177.037 2240.74 180.981 2239.73 184.741C2238.88 188.579 2235.29 190.947 2231.72 190.031Z" fill="#FDC300"/>
</svg>
