<svg width="371" height="50" viewBox="0 0 371 50" fill="none" xmlns="http://www.w3.org/2000/svg">
<path d="M88.5352 42.7656C87.5859 43.9023 86.2441 44.7871 84.5098 45.4199C82.7754 46.041 80.8535 46.3516 78.7441 46.3516C76.5293 46.3516 74.584 45.8711 72.9082 44.9102C71.2441 43.9375 69.9551 42.5312 69.041 40.6914C68.1387 38.8516 67.6758 36.6895 67.6523 34.2051V32.4648C67.6523 29.9102 68.0801 27.7012 68.9355 25.8379C69.8027 23.9629 71.0449 22.5332 72.6621 21.5488C74.291 20.5527 76.1953 20.0547 78.375 20.0547C81.4102 20.0547 83.7832 20.7812 85.4941 22.2344C87.2051 23.6758 88.2188 25.7793 88.5352 28.5449H83.4023C83.168 27.0801 82.6465 26.0078 81.8379 25.3281C81.041 24.6484 79.9395 24.3086 78.5332 24.3086C76.7402 24.3086 75.375 24.9824 74.4375 26.3301C73.5 27.6777 73.0254 29.6816 73.0137 32.3418V33.9766C73.0137 36.6602 73.5234 38.6875 74.543 40.0586C75.5625 41.4297 77.0566 42.1152 79.0254 42.1152C81.0059 42.1152 82.418 41.6934 83.2617 40.8496V36.4375H78.4629V32.5527H88.5352V42.7656ZM112.195 20.4062V37.2637C112.195 40.0645 111.316 42.2793 109.559 43.9082C107.812 45.5371 105.422 46.3516 102.387 46.3516C99.3984 46.3516 97.0254 45.5605 95.2676 43.9785C93.5098 42.3965 92.6133 40.2227 92.5781 37.457V20.4062H97.8516V37.2988C97.8516 38.9746 98.25 40.1992 99.0469 40.9727C99.8555 41.7344 100.969 42.1152 102.387 42.1152C105.352 42.1152 106.857 40.5566 106.904 37.4395V20.4062H112.195ZM131.918 34.9082H121.793V41.7637H133.676V46H116.52V20.4062H133.641V24.6777H121.793V30.7773H131.918V34.9082ZM150.041 39.2852C150.041 38.2891 149.689 37.5273 148.986 37C148.283 36.4609 147.018 35.8984 145.189 35.3125C143.361 34.7148 141.914 34.1289 140.848 33.5547C137.941 31.9844 136.488 29.8691 136.488 27.209C136.488 25.8262 136.875 24.5957 137.648 23.5176C138.434 22.4277 139.553 21.5781 141.006 20.9688C142.471 20.3594 144.111 20.0547 145.928 20.0547C147.756 20.0547 149.385 20.3887 150.814 21.0566C152.244 21.7129 153.352 22.6445 154.137 23.8516C154.934 25.0586 155.332 26.4297 155.332 27.9648H150.059C150.059 26.793 149.689 25.8848 148.951 25.2402C148.213 24.584 147.176 24.2559 145.84 24.2559C144.551 24.2559 143.549 24.5312 142.834 25.082C142.119 25.6211 141.762 26.3359 141.762 27.2266C141.762 28.0586 142.178 28.7559 143.01 29.3184C143.854 29.8809 145.09 30.4082 146.719 30.9004C149.719 31.8027 151.904 32.9219 153.275 34.2578C154.646 35.5938 155.332 37.2578 155.332 39.25C155.332 41.4648 154.494 43.2051 152.818 44.4707C151.143 45.7246 148.887 46.3516 146.051 46.3516C144.082 46.3516 142.289 45.9941 140.672 45.2793C139.055 44.5527 137.818 43.5625 136.963 42.3086C136.119 41.0547 135.697 39.6016 135.697 37.9492H140.988C140.988 40.7734 142.676 42.1855 146.051 42.1855C147.305 42.1855 148.283 41.9336 148.986 41.4297C149.689 40.9141 150.041 40.1992 150.041 39.2852ZM172.189 39.2852C172.189 38.2891 171.838 37.5273 171.135 37C170.432 36.4609 169.166 35.8984 167.338 35.3125C165.51 34.7148 164.062 34.1289 162.996 33.5547C160.09 31.9844 158.637 29.8691 158.637 27.209C158.637 25.8262 159.023 24.5957 159.797 23.5176C160.582 22.4277 161.701 21.5781 163.154 20.9688C164.619 20.3594 166.26 20.0547 168.076 20.0547C169.904 20.0547 171.533 20.3887 172.963 21.0566C174.393 21.7129 175.5 22.6445 176.285 23.8516C177.082 25.0586 177.48 26.4297 177.48 27.9648H172.207C172.207 26.793 171.838 25.8848 171.1 25.2402C170.361 24.584 169.324 24.2559 167.988 24.2559C166.699 24.2559 165.697 24.5312 164.982 25.082C164.268 25.6211 163.91 26.3359 163.91 27.2266C163.91 28.0586 164.326 28.7559 165.158 29.3184C166.002 29.8809 167.238 30.4082 168.867 30.9004C171.867 31.8027 174.053 32.9219 175.424 34.2578C176.795 35.5938 177.48 37.2578 177.48 39.25C177.48 41.4648 176.643 43.2051 174.967 44.4707C173.291 45.7246 171.035 46.3516 168.199 46.3516C166.23 46.3516 164.438 45.9941 162.82 45.2793C161.203 44.5527 159.967 43.5625 159.111 42.3086C158.268 41.0547 157.846 39.6016 157.846 37.9492H163.137C163.137 40.7734 164.824 42.1855 168.199 42.1855C169.453 42.1855 170.432 41.9336 171.135 41.4297C171.838 40.9141 172.189 40.1992 172.189 39.2852ZM190.541 36.6309H186.34V46H181.066V20.4062H190.576C193.6 20.4062 195.932 21.0801 197.572 22.4277C199.213 23.7754 200.033 25.6797 200.033 28.1406C200.033 29.8867 199.652 31.3457 198.891 32.5176C198.141 33.6777 196.998 34.6035 195.463 35.2949L201 45.7539V46H195.34L190.541 36.6309ZM186.34 32.3594H190.594C191.918 32.3594 192.943 32.0254 193.67 31.3574C194.396 30.6777 194.76 29.7461 194.76 28.5625C194.76 27.3555 194.414 26.4062 193.723 25.7148C193.043 25.0234 191.994 24.6777 190.576 24.6777H186.34V32.3594ZM202.934 36.3145C202.934 34.4277 203.297 32.7461 204.023 31.2695C204.75 29.793 205.793 28.6504 207.152 27.8418C208.523 27.0332 210.111 26.6289 211.916 26.6289C214.482 26.6289 216.574 27.4141 218.191 28.9844C219.82 30.5547 220.729 32.6875 220.916 35.3828L220.951 36.6836C220.951 39.6016 220.137 41.9453 218.508 43.7148C216.879 45.4727 214.693 46.3516 211.951 46.3516C209.209 46.3516 207.018 45.4727 205.377 43.7148C203.748 41.957 202.934 39.5664 202.934 36.543V36.3145ZM208.014 36.6836C208.014 38.4883 208.354 39.8711 209.033 40.832C209.713 41.7812 210.686 42.2559 211.951 42.2559C213.182 42.2559 214.143 41.7871 214.834 40.8496C215.525 39.9004 215.871 38.3887 215.871 36.3145C215.871 34.5449 215.525 33.1738 214.834 32.2012C214.143 31.2285 213.17 30.7422 211.916 30.7422C210.674 30.7422 209.713 31.2285 209.033 32.2012C208.354 33.1621 208.014 34.6562 208.014 36.6836ZM230.162 22.3047V26.9805H233.414V30.707H230.162V40.1992C230.162 40.9023 230.297 41.4062 230.566 41.7109C230.836 42.0156 231.352 42.168 232.113 42.168C232.676 42.168 233.174 42.127 233.607 42.0449V45.8945C232.611 46.1992 231.586 46.3516 230.531 46.3516C226.969 46.3516 225.152 44.5527 225.082 40.9551V30.707H222.305V26.9805H225.082V22.3047H230.162ZM242.326 22.3047V26.9805H245.578V30.707H242.326V40.1992C242.326 40.9023 242.461 41.4062 242.73 41.7109C243 42.0156 243.516 42.168 244.277 42.168C244.84 42.168 245.338 42.127 245.771 42.0449V45.8945C244.775 46.1992 243.75 46.3516 242.695 46.3516C239.133 46.3516 237.316 44.5527 237.246 40.9551V30.707H234.469V26.9805H237.246V22.3047H242.326ZM257.162 46.3516C254.373 46.3516 252.1 45.4961 250.342 43.7852C248.596 42.0742 247.723 39.7949 247.723 36.9473V36.4551C247.723 34.5449 248.092 32.8398 248.83 31.3398C249.568 29.8281 250.611 28.668 251.959 27.8594C253.318 27.0391 254.865 26.6289 256.6 26.6289C259.201 26.6289 261.246 27.4492 262.734 29.0898C264.234 30.7305 264.984 33.0566 264.984 36.0684V38.1426H252.873C253.037 39.3848 253.529 40.3809 254.35 41.1309C255.182 41.8809 256.23 42.2559 257.496 42.2559C259.453 42.2559 260.982 41.5469 262.084 40.1289L264.58 42.9238C263.818 44.002 262.787 44.8457 261.486 45.4551C260.186 46.0527 258.744 46.3516 257.162 46.3516ZM256.582 30.7422C255.574 30.7422 254.754 31.082 254.121 31.7617C253.5 32.4414 253.102 33.4141 252.926 34.6797H259.992V34.2754C259.969 33.1504 259.664 32.2832 259.078 31.6738C258.492 31.0527 257.66 30.7422 256.582 30.7422ZM278.572 31.7441C277.881 31.6504 277.271 31.6035 276.744 31.6035C274.822 31.6035 273.562 32.2539 272.965 33.5547V46H267.885V26.9805H272.684L272.824 29.248C273.844 27.502 275.256 26.6289 277.061 26.6289C277.623 26.6289 278.15 26.7051 278.643 26.8574L278.572 31.7441ZM279.891 36.3496C279.891 33.3848 280.553 31.0234 281.877 29.2656C283.213 27.5078 285.035 26.6289 287.344 26.6289C289.195 26.6289 290.725 27.3203 291.932 28.7031V19H297.029V46H292.441L292.195 43.9785C290.93 45.5605 289.301 46.3516 287.309 46.3516C285.07 46.3516 283.271 45.4727 281.912 43.7148C280.564 41.9453 279.891 39.4902 279.891 36.3496ZM284.971 36.7188C284.971 38.5 285.281 39.8652 285.902 40.8145C286.523 41.7637 287.426 42.2383 288.609 42.2383C290.18 42.2383 291.287 41.5762 291.932 40.252V32.7461C291.299 31.4219 290.203 30.7598 288.645 30.7598C286.195 30.7598 284.971 32.7461 284.971 36.7188ZM311.988 46C311.754 45.543 311.584 44.9746 311.479 44.2949C310.248 45.666 308.648 46.3516 306.68 46.3516C304.816 46.3516 303.27 45.8125 302.039 44.7344C300.82 43.6562 300.211 42.2969 300.211 40.6562C300.211 38.6406 300.955 37.0938 302.443 36.0156C303.943 34.9375 306.105 34.3926 308.93 34.3809H311.268V33.291C311.268 32.4121 311.039 31.709 310.582 31.1816C310.137 30.6543 309.428 30.3906 308.455 30.3906C307.6 30.3906 306.926 30.5957 306.434 31.0059C305.953 31.416 305.713 31.9785 305.713 32.6934H300.633C300.633 31.5918 300.973 30.5723 301.652 29.6348C302.332 28.6973 303.293 27.9648 304.535 27.4375C305.777 26.8984 307.172 26.6289 308.719 26.6289C311.062 26.6289 312.92 27.2207 314.291 28.4043C315.674 29.5762 316.365 31.2285 316.365 33.3613V41.6055C316.377 43.4102 316.629 44.7754 317.121 45.7012V46H311.988ZM307.787 42.4668C308.537 42.4668 309.229 42.3027 309.861 41.9746C310.494 41.6348 310.963 41.1836 311.268 40.6211V37.3516H309.369C306.826 37.3516 305.473 38.2305 305.309 39.9883L305.291 40.2871C305.291 40.9199 305.514 41.4414 305.959 41.8516C306.404 42.2617 307.014 42.4668 307.787 42.4668ZM325.031 26.9805L325.189 29.1074C326.537 27.4551 328.359 26.6289 330.656 26.6289C333.105 26.6289 334.787 27.5957 335.701 29.5293C337.037 27.5957 338.941 26.6289 341.414 26.6289C343.477 26.6289 345.012 27.2324 346.02 28.4395C347.027 29.6348 347.531 31.4395 347.531 33.8535V46H342.434V33.8711C342.434 32.793 342.223 32.0078 341.801 31.5156C341.379 31.0117 340.635 30.7598 339.568 30.7598C338.045 30.7598 336.99 31.4863 336.404 32.9395L336.422 46H331.342V33.8887C331.342 32.7871 331.125 31.9902 330.691 31.498C330.258 31.0059 329.52 30.7598 328.477 30.7598C327.035 30.7598 325.992 31.3574 325.348 32.5527V46H320.268V26.9805H325.031Z" fill="black"/>
<path d="M24.8838 11.1641H29.2432C29.2549 10.2031 29.9111 9.53516 30.8369 9.53516C31.751 9.53516 32.4189 10.0742 32.4189 10.8594C32.4189 11.8203 32.0322 12.2422 30.3682 13.2031C28.7393 14.1406 28.2002 15.1953 28.4932 17.3398L28.5283 17.6211H32.6885V17.1289C32.6885 16.0742 33.1338 15.582 34.7744 14.6445C36.5674 13.6133 37.3291 12.4531 37.3291 10.7539C37.3291 7.8125 34.915 5.92578 31.165 5.92578C27.2744 5.92578 24.8838 7.92969 24.8838 11.1641ZM30.6963 23.4688C32.0674 23.4688 33.1924 22.4375 33.1924 21.125C33.1924 19.8242 32.0674 18.793 30.6963 18.793C29.3252 18.793 28.2119 19.8242 28.2119 21.125C28.2119 22.4375 29.3252 23.4688 30.6963 23.4688Z" fill="black"/>
<path d="M0 7.14288H15.7143V22.8572H0V7.14288Z" fill="black"/>
<path d="M0 7.14288H15.7143V22.8572H0V7.14288Z" fill="black"/>
<path d="M0 28.5714H22.8571V35.7143H0V28.5714Z" fill="black"/>
<path d="M0 28.5714H22.8571V35.7143H0V28.5714Z" fill="black"/>
<path d="M0 41.4286H41.4286V50H0V41.4286Z" fill="black"/>
<path d="M0 41.4286H41.4286V50H0V41.4286Z" fill="black"/>
<rect x="4.28613" y="11.4286" width="7.14286" height="7.14286" fill="black"/>
</svg>
